<?xml version="1.0" encoding="UTF-8" standalone="no"?>
<!DOCTYPE svg PUBLIC "-//W3C//DTD SVG 1.1//EN"
 "http://www.w3.org/Graphics/SVG/1.1/DTD/svg11.dtd">
<!-- Generated by graphviz version 2.40.1 (20161225.0304)
 -->
<!-- Title: dependencies Pages: 1 -->
<svg width="1421pt" height="211pt"
 viewBox="0.00 0.00 1421.00 211.00" xmlns="http://www.w3.org/2000/svg" xmlns:xlink="http://www.w3.org/1999/xlink">
<g id="graph0" class="graph" transform="scale(1 1) rotate(0) translate(4 207)">
<title>dependencies</title>
<polygon fill="#ffffff" stroke="transparent" points="-4,4 -4,-207 1417,-207 1417,4 -4,4"/>
<text text-anchor="start" x="685.5091" y="-42.4" font-family="sans-serif" font-weight="bold" font-size="14.00" fill="#000000">Legend</text>
<polygon fill="#ffffb3" stroke="transparent" points="472.5,-10 472.5,-30 492.5,-30 492.5,-10 472.5,-10"/>
<text text-anchor="start" x="496.129" y="-15.4" font-family="sans-serif" font-size="14.00" fill="#000000"> &#160;Declarations</text>
<polygon fill="#8dd3c7" stroke="transparent" points="585.5,-10 585.5,-30 605.5,-30 605.5,-10 585.5,-10"/>
<text text-anchor="start" x="609.2251" y="-15.4" font-family="sans-serif" font-size="14.00" fill="#000000"> &#160;Module</text>
<polygon fill="#80b1d3" stroke="transparent" points="671.5,-10 671.5,-30 691.5,-30 691.5,-10 671.5,-10"/>
<text text-anchor="start" x="695.2812" y="-15.4" font-family="sans-serif" font-size="14.00" fill="#000000"> &#160;Bootstrap</text>
<polygon fill="#fdb462" stroke="transparent" points="768.5,-10 768.5,-30 788.5,-30 788.5,-10 768.5,-10"/>
<text text-anchor="start" x="792.1732" y="-15.4" font-family="sans-serif" font-size="14.00" fill="#000000"> &#160;Providers</text>
<polygon fill="#fb8072" stroke="transparent" points="864.5,-10 864.5,-30 884.5,-30 884.5,-10 864.5,-10"/>
<text text-anchor="start" x="888.2258" y="-15.4" font-family="sans-serif" font-size="14.00" fill="#000000"> &#160;Exports</text>
<g id="clust1" class="cluster">
<title>cluster_ModulesModule</title>
<polygon fill="none" stroke="#000000" stroke-dasharray="1,5" points="8,-70 8,-195 1405,-195 1405,-70 8,-70"/>
</g>
<g id="clust2" class="cluster">
<title>cluster_ModulesModule_declarations</title>
<polygon fill="none" stroke="#000000" points="318,-78 318,-130 1397,-130 1397,-78 318,-78"/>
</g>
<g id="clust10" class="cluster">
<title>cluster_ModulesModule_imports</title>
<polygon fill="none" stroke="#000000" points="16,-78 16,-130 310,-130 310,-78 16,-78"/>
</g>
<!-- AddTaskComponent -->
<g id="node1" class="node">
<title>AddTaskComponent</title>
<polygon fill="#ffffb3" stroke="#000000" points="1389.1513,-122 1256.8487,-122 1256.8487,-86 1389.1513,-86 1389.1513,-122"/>
<text text-anchor="middle" x="1323" y="-99.8" font-family="Times,serif" font-size="14.00" fill="#000000">AddTaskComponent</text>
</g>
<!-- ModulesModule -->
<g id="node8" class="node">
<title>ModulesModule</title>
<polygon fill="#8dd3c7" stroke="#000000" points="730.0452,-187 727.0452,-191 706.0452,-191 703.0452,-187 621.9548,-187 621.9548,-151 730.0452,-151 730.0452,-187"/>
<text text-anchor="middle" x="676" y="-164.8" font-family="Times,serif" font-size="14.00" fill="#000000">ModulesModule</text>
</g>
<!-- AddTaskComponent&#45;&gt;ModulesModule -->
<g id="edge1" class="edge">
<title>AddTaskComponent&#45;&gt;ModulesModule</title>
<path fill="none" stroke="#000000" d="M1323,-122.0109C1323,-144.4852 1323,-180 1323,-180 1323,-180 740.05,-180 740.05,-180"/>
<polygon fill="#000000" stroke="#000000" points="740.0501,-176.5001 730.05,-180 740.05,-183.5001 740.0501,-176.5001"/>
</g>
<!-- ConfigurationComponent -->
<g id="node2" class="node">
<title>ConfigurationComponent</title>
<polygon fill="#ffffb3" stroke="#000000" points="1238.8766,-122 1079.1234,-122 1079.1234,-86 1238.8766,-86 1238.8766,-122"/>
<text text-anchor="middle" x="1159" y="-99.8" font-family="Times,serif" font-size="14.00" fill="#000000">ConfigurationComponent</text>
</g>
<!-- ConfigurationComponent&#45;&gt;ModulesModule -->
<g id="edge2" class="edge">
<title>ConfigurationComponent&#45;&gt;ModulesModule</title>
<path fill="none" stroke="#000000" d="M1159,-122.1289C1159,-142.5724 1159,-173 1159,-173 1159,-173 740.4674,-173 740.4674,-173"/>
<polygon fill="#000000" stroke="#000000" points="740.4674,-169.5001 730.4674,-173 740.4673,-176.5001 740.4674,-169.5001"/>
</g>
<!-- DashboardComponent -->
<g id="node3" class="node">
<title>DashboardComponent</title>
<polygon fill="#ffffb3" stroke="#000000" points="1060.9734,-122 919.0266,-122 919.0266,-86 1060.9734,-86 1060.9734,-122"/>
<text text-anchor="middle" x="990" y="-99.8" font-family="Times,serif" font-size="14.00" fill="#000000">DashboardComponent</text>
</g>
<!-- DashboardComponent&#45;&gt;ModulesModule -->
<g id="edge3" class="edge">
<title>DashboardComponent&#45;&gt;ModulesModule</title>
<path fill="none" stroke="#000000" d="M990,-122.2667C990,-140.5552 990,-166 990,-166 990,-166 740.3362,-166 740.3362,-166"/>
<polygon fill="#000000" stroke="#000000" points="740.3362,-162.5001 730.3362,-166 740.3361,-169.5001 740.3362,-162.5001"/>
</g>
<!-- HistoricalsComponent -->
<g id="node4" class="node">
<title>HistoricalsComponent</title>
<polygon fill="#ffffb3" stroke="#000000" points="900.9804,-122 759.0196,-122 759.0196,-86 900.9804,-86 900.9804,-122"/>
<text text-anchor="middle" x="830" y="-99.8" font-family="Times,serif" font-size="14.00" fill="#000000">HistoricalsComponent</text>
</g>
<!-- HistoricalsComponent&#45;&gt;ModulesModule -->
<g id="edge4" class="edge">
<title>HistoricalsComponent&#45;&gt;ModulesModule</title>
<path fill="none" stroke="#000000" d="M830,-122.0091C830,-138.0494 830,-159 830,-159 830,-159 740.2946,-159 740.2946,-159"/>
<polygon fill="#000000" stroke="#000000" points="740.2947,-155.5001 730.2946,-159 740.2946,-162.5001 740.2947,-155.5001"/>
</g>
<!-- ModulesComponent -->
<g id="node5" class="node">
<title>ModulesComponent</title>
<polygon fill="#ffffb3" stroke="#000000" points="741.3272,-122 610.6728,-122 610.6728,-86 741.3272,-86 741.3272,-122"/>
<text text-anchor="middle" x="676" y="-99.8" font-family="Times,serif" font-size="14.00" fill="#000000">ModulesComponent</text>
</g>
<!-- ModulesComponent&#45;&gt;ModulesModule -->
<g id="edge5" class="edge">
<title>ModulesComponent&#45;&gt;ModulesModule</title>
<path fill="none" stroke="#000000" d="M676,-122.1061C676,-122.1061 676,-140.991 676,-140.991"/>
<polygon fill="#000000" stroke="#000000" points="672.5001,-140.9909 676,-150.991 679.5001,-140.991 672.5001,-140.9909"/>
</g>
<!-- SparklineComponent -->
<g id="node6" class="node">
<title>SparklineComponent</title>
<polygon fill="#ffffb3" stroke="#000000" points="592.486,-122 457.514,-122 457.514,-86 592.486,-86 592.486,-122"/>
<text text-anchor="middle" x="525" y="-99.8" font-family="Times,serif" font-size="14.00" fill="#000000">SparklineComponent</text>
</g>
<!-- SparklineComponent&#45;&gt;ModulesModule -->
<g id="edge6" class="edge">
<title>SparklineComponent&#45;&gt;ModulesModule</title>
<path fill="none" stroke="#000000" d="M525,-122.0091C525,-138.0494 525,-159 525,-159 525,-159 611.912,-159 611.912,-159"/>
<polygon fill="#000000" stroke="#000000" points="611.9121,-162.5001 621.912,-159 611.912,-155.5001 611.9121,-162.5001"/>
</g>
<!-- TasksComponent -->
<g id="node7" class="node">
<title>TasksComponent</title>
<polygon fill="#ffffb3" stroke="#000000" points="439.9888,-122 326.0112,-122 326.0112,-86 439.9888,-86 439.9888,-122"/>
<text text-anchor="middle" x="383" y="-99.8" font-family="Times,serif" font-size="14.00" fill="#000000">TasksComponent</text>
</g>
<!-- TasksComponent&#45;&gt;ModulesModule -->
<g id="edge7" class="edge">
<title>TasksComponent&#45;&gt;ModulesModule</title>
<path fill="none" stroke="#000000" d="M383,-122.2667C383,-140.5552 383,-166 383,-166 383,-166 611.9178,-166 611.9178,-166"/>
<polygon fill="#000000" stroke="#000000" points="611.9179,-169.5001 621.9178,-166 611.9178,-162.5001 611.9179,-169.5001"/>
</g>
<!-- MaterialModule -->
<g id="node9" class="node">
<title>MaterialModule</title>
<polygon fill="#8dd3c7" stroke="#000000" points="302.4706,-122 299.4706,-126 278.4706,-126 275.4706,-122 195.5294,-122 195.5294,-86 302.4706,-86 302.4706,-122"/>
<text text-anchor="middle" x="249" y="-99.8" font-family="Times,serif" font-size="14.00" fill="#000000">MaterialModule</text>
</g>
<!-- MaterialModule&#45;&gt;ModulesModule -->
<g id="edge8" class="edge">
<title>MaterialModule&#45;&gt;ModulesModule</title>
<path fill="none" stroke="#000000" d="M249,-122.1289C249,-142.5724 249,-173 249,-173 249,-173 611.9202,-173 611.9202,-173"/>
<polygon fill="#000000" stroke="#000000" points="611.9202,-176.5001 621.9202,-173 611.9201,-169.5001 611.9202,-176.5001"/>
</g>
<!-- ModulesRoutingModule -->
<g id="node10" class="node">
<title>ModulesRoutingModule</title>
<polygon fill="#8dd3c7" stroke="#000000" points="177.6624,-122 174.6624,-126 153.6624,-126 150.6624,-122 24.3376,-122 24.3376,-86 177.6624,-86 177.6624,-122"/>
<text text-anchor="middle" x="101" y="-99.8" font-family="Times,serif" font-size="14.00" fill="#000000">ModulesRoutingModule</text>
</g>
<!-- ModulesRoutingModule&#45;&gt;ModulesModule -->
<g id="edge9" class="edge">
<title>ModulesRoutingModule&#45;&gt;ModulesModule</title>
<path fill="none" stroke="#000000" d="M101,-122.0109C101,-144.4852 101,-180 101,-180 101,-180 611.9054,-180 611.9054,-180"/>
<polygon fill="#000000" stroke="#000000" points="611.9054,-183.5001 621.9054,-180 611.9054,-176.5001 611.9054,-183.5001"/>
</g>
</g>
</svg>
