<?xml version="1.0" encoding="UTF-8" standalone="no"?>
<svg
   xmlns:dc="http://purl.org/dc/elements/1.1/"
   xmlns:cc="http://creativecommons.org/ns#"
   xmlns:rdf="http://www.w3.org/1999/02/22-rdf-syntax-ns#"
   xmlns:svg="http://www.w3.org/2000/svg"
   xmlns="http://www.w3.org/2000/svg"
   viewBox="0 0 59.586666 86.666664"
   height="86.666664"
   width="59.586666"
   xml:space="preserve"
   id="svg2"
   version="1.1"><metadata
     id="metadata8"><rdf:RDF><cc:Work
         rdf:about=""><dc:format>image/svg+xml</dc:format><dc:type
           rdf:resource="http://purl.org/dc/dcmitype/StillImage" /></cc:Work></rdf:RDF></metadata><defs
     id="defs6" /><g
     transform="matrix(1.3333333,0,0,-1.3333333,0,86.666667)"
     id="g10"><g
       transform="scale(0.1)"
       id="g12"><path
         id="path14"
         style="fill:#2e2d2d;fill-opacity:1;fill-rule:nonzero;stroke:none"
         d="M 121.875,81.25 H 325 C 315.656,34.9375 272.188,0 223.438,0 174.688,0 131.219,34.9375 121.875,81.25 Z M 371.313,346.125 C 361.156,328.25 352.219,313.625 344.094,301.031 309.156,243.75 293.313,217.344 285.188,169.813 l -0.813,-6.907 H 162.5 l -0.812,6.907 c -8.125,47.531 -23.969,74.343 -58.907,131.218 C 94.6563,313.625 85.7188,328.25 75.5625,346.125 58.5,374.563 40.625,420.469 40.625,446.875 c 0,89.375 82.063,162.5 182.813,162.5 49.562,0 95.875,-17.062 130.812,-48.344 33.719,-30.468 52,-71.093 52,-114.156 0,-26.812 -17.875,-72.312 -34.937,-100.75 z M 223.438,650 C 100.75,650 0,561.031 0,446.875 0,409.5 22.3438,355.469 40.625,325 95.0625,233.594 112.938,212.063 121.875,162.5 V 121.875 H 325 V 162.5 c 8.938,49.563 26.813,71.094 81.25,162.5 18.281,30.469 40.625,84.5 40.625,121.875 C 446.875,561.031 346.125,650 223.438,650" /></g></g></svg>