<svg id="Ebene_1" data-name="Ebene 1" xmlns="http://www.w3.org/2000/svg" viewBox="0 0 100 100"><path d="M77.23,52.43,82,51.24A30.09,30.09,0,0,0,52.78,28.42H17.44v4.94H52.78A25.15,25.15,0,0,1,77.23,52.43Zm-24.6-15.9a22,22,0,1,0,22,22A22.05,22.05,0,0,0,52.63,36.53Zm-6.18,6.11a16.94,16.94,0,0,1,6.18-1.18,17.61,17.61,0,0,1,3.93.47C49.08,44.75,46,49.58,44.84,52.21A22.84,22.84,0,0,1,46.45,42.64Zm6.18,11.15a4.77,4.77,0,1,1-4.76,4.77A4.77,4.77,0,0,1,52.63,53.79ZM40.2,46.86c-1.3,7.87,1.35,13,3,15.27A23,23,0,0,1,35.75,56,17,17,0,0,1,40.2,46.86Zm-3.94,16.6c5.14,4.22,10,5.1,13.1,5.1A13.67,13.67,0,0,0,51,68.47a22.8,22.8,0,0,1-9.1,3.4A17.09,17.09,0,0,1,36.26,63.46Zm22.56,11a16.85,16.85,0,0,1-10.12.7c7.48-2.81,10.55-7.65,11.72-10.27A23,23,0,0,1,58.82,74.48Zm6.24-4.23c1.3-7.87-1.34-12.94-3-15.26a22.9,22.9,0,0,1,7.49,6.17A17,17,0,0,1,65.06,70.25ZM54.23,48.64a22.86,22.86,0,0,1,9.1-3.4A17.07,17.07,0,0,1,69,53.66C62.82,48.58,57.09,48.33,54.23,48.64Zm28,48.24-9-16.16A29.92,29.92,0,0,0,82,65.86l-4.78-1.2A25.2,25.2,0,1,1,29.36,49.3l1.33-3.37H17.44v4.93h6.22a30,30,0,0,0,8.71,29.8L23.29,96.88A2.09,2.09,0,0,0,25.11,100H80.45a2.09,2.09,0,0,0,1.82-3.12ZM28.69,95.81l7-12.48a30.05,30.05,0,0,0,34.23,0l7,12.46Z"/></svg>