<?xml version="1.0" encoding="UTF-8" standalone="no"?>
<svg
   xmlns:dc="http://purl.org/dc/elements/1.1/"
   xmlns:cc="http://creativecommons.org/ns#"
   xmlns:rdf="http://www.w3.org/1999/02/22-rdf-syntax-ns#"
   xmlns:svg="http://www.w3.org/2000/svg"
   xmlns="http://www.w3.org/2000/svg"
   viewBox="0 0 86.666664 86.666664"
   height="86.666664"
   width="86.666664"
   xml:space="preserve"
   id="svg2"
   version="1.1"><metadata
     id="metadata8"><rdf:RDF><cc:Work
         rdf:about=""><dc:format>image/svg+xml</dc:format><dc:type
           rdf:resource="http://purl.org/dc/dcmitype/StillImage" /></cc:Work></rdf:RDF></metadata><defs
     id="defs6" /><g
     transform="matrix(1.3333333,0,0,-1.3333333,0,86.666667)"
     id="g10"><g
       transform="scale(0.1)"
       id="g12"><path
         id="path14"
         style="fill:#2e2d2d;fill-opacity:1;fill-rule:nonzero;stroke:none"
         d="m 138.301,511.699 c 7.855,-7.933 20.785,-7.933 28.719,0 7.859,7.856 7.859,20.789 0,28.723 l -28.719,28.726 c -7.934,7.852 -20.871,7.852 -28.723,0 -7.933,-7.933 -7.933,-20.871 0,-28.726 l 28.723,-28.723" /><path
         id="path16"
         style="fill:#2e2d2d;fill-opacity:1;fill-rule:nonzero;stroke:none"
         d="m 81.25,345.23 c 0,11.188 -9.125,20.313 -20.3125,20.313 H 20.3125 C 9.16406,365.543 0,356.418 0,345.23 0,334.047 9.16406,324.918 20.3125,324.918 h 40.625 c 11.1875,0 20.3125,9.129 20.3125,20.312" /><path
         id="path18"
         style="fill:#2e2d2d;fill-opacity:1;fill-rule:nonzero;stroke:none"
         d="M 109.652,166.945 80.8516,138.219 C 73,130.285 73,117.352 80.8516,109.496 c 7.9336,-7.933 20.8674,-7.933 28.7264,0 l 28.801,28.723 c 7.855,7.855 7.855,20.793 0,28.726 -7.938,7.852 -20.867,7.852 -28.727,0" /><path
         id="path20"
         style="fill:#2e2d2d;fill-opacity:1;fill-rule:nonzero;stroke:none"
         d="m 304.805,81.25 c -11.149,0 -20.274,-9.125 -20.313,-20.3125 l -0.035,-40.625 C 284.457,9.125 293.578,0 304.77,0 c 11.148,-0.0820313 20.312,9.04688 20.312,20.2305 v 40.707 c 0,11.1875 -9.129,20.3125 -20.277,20.3125" /><path
         id="path22"
         style="fill:#2e2d2d;fill-opacity:1;fill-rule:nonzero;stroke:none"
         d="m 345.313,568.75 c 11.187,-0.082 20.312,9.047 20.312,20.23 l 0.082,40.708 c 0,11.187 -9.129,20.312 -20.312,20.312 -11.192,0 -20.313,-9.125 -20.313,-20.312 l -0.039,-40.625 C 325,577.875 334.164,568.75 345.313,568.75" /><path
         id="path24"
         style="fill:#2e2d2d;fill-opacity:1;fill-rule:nonzero;stroke:none"
         d="m 511.781,138.301 c -7.937,7.855 -20.828,7.933 -28.726,0 -7.852,-7.86 -7.852,-20.789 0.043,-28.723 l 28.683,-28.7264 c 7.895,-7.9336 20.789,-7.9336 28.723,0 7.934,7.8554 7.934,20.7934 0,28.6444 l -28.723,28.805" /><path
         id="path26"
         style="fill:#2e2d2d;fill-opacity:1;fill-rule:nonzero;stroke:none"
         d="m 629.77,325 h -40.707 c -11.149,0 -20.313,-9.125 -20.313,-20.23 0,-11.192 9.164,-20.313 20.313,-20.313 l 40.625,-0.082 c 11.148,0 20.312,9.125 20.312,20.313 0.039,11.187 -9.082,20.312 -20.23,20.312" /><path
         id="path28"
         style="fill:#2e2d2d;fill-opacity:1;fill-rule:nonzero;stroke:none"
         d="m 540.387,483.055 28.718,28.644 c 7.895,7.856 7.938,20.789 0.043,28.723 -7.859,7.933 -20.793,7.933 -28.644,0 l -28.805,-28.723 c -7.855,-7.933 -7.894,-20.785 0,-28.722 7.86,-7.856 20.789,-7.856 28.688,0.078" /><path
         id="path30"
         style="fill:#2e2d2d;fill-opacity:1;fill-rule:nonzero;stroke:none"
         d="m 325.082,528.125 c -112.199,0 -203.125,-90.934 -203.125,-203.125 0,-112.195 90.926,-203.125 203.125,-203.125 112.152,0 203.125,90.93 203.125,203.125 0,112.191 -90.973,203.125 -203.125,203.125" /></g></g></svg>