<?xml version="1.0" encoding="UTF-8" standalone="no"?>
<svg
   xmlns:dc="http://purl.org/dc/elements/1.1/"
   xmlns:cc="http://creativecommons.org/ns#"
   xmlns:rdf="http://www.w3.org/1999/02/22-rdf-syntax-ns#"
   xmlns:svg="http://www.w3.org/2000/svg"
   xmlns="http://www.w3.org/2000/svg"
   viewBox="0 0 35.560001 80"
   height="80"
   width="35.560001"
   xml:space="preserve"
   id="svg2"
   version="1.1"><metadata
     id="metadata8"><rdf:RDF><cc:Work
         rdf:about=""><dc:format>image/svg+xml</dc:format><dc:type
           rdf:resource="http://purl.org/dc/dcmitype/StillImage" /></cc:Work></rdf:RDF></metadata><defs
     id="defs6" /><g
     transform="matrix(1.3333333,0,0,-1.3333333,0,80)"
     id="g10"><g
       transform="scale(0.1)"
       id="g12"><path
         id="path14"
         style="fill:#2e2d2d;fill-opacity:1;fill-rule:nonzero;stroke:none"
         d="m 66.668,129.629 c 0,-36.8204 29.8437,-66.6642 66.664,-66.6642 36.813,0 66.668,29.8438 66.668,66.6642 z m 66.664,437.039 c 19.039,0 33.336,-14.289 33.336,-33.336 V 248.609 229.516 l 16.664,-9.723 c 29.914,-17.34 50,-49.262 50,-86.461 0,-55.6172 -44.379,-100 -100,-100 -55.6289,0 -100,44.3828 -100,100 0,37.199 20.0899,69.121 50,86.461 L 100,229.516 v 19.093 284.723 c 0,19.047 14.285,33.336 33.332,33.336 z m 0,33.332 C 96.3984,600 62.9648,570.27 62.9648,533.332 V 248.609 C 23.168,225.543 0,182.641 0,133.332 0,59.6914 59.6914,0 133.332,0 c 73.633,0 133.336,59.6914 133.336,133.332 0,49.309 -23.172,92.211 -62.973,115.277 v 284.723 c 0,36.938 -33.433,66.668 -70.363,66.668" /></g></g></svg>