<?xml version="1.0" encoding="UTF-8" standalone="no"?>
<svg
   xmlns:dc="http://purl.org/dc/elements/1.1/"
   xmlns:cc="http://creativecommons.org/ns#"
   xmlns:rdf="http://www.w3.org/1999/02/22-rdf-syntax-ns#"
   xmlns:svg="http://www.w3.org/2000/svg"
   xmlns="http://www.w3.org/2000/svg"
   viewBox="0 0 86.666664 85.306664"
   height="85.306664"
   width="86.666664"
   xml:space="preserve"
   id="svg2"
   version="1.1"><metadata
     id="metadata8"><rdf:RDF><cc:Work
         rdf:about=""><dc:format>image/svg+xml</dc:format><dc:type
           rdf:resource="http://purl.org/dc/dcmitype/StillImage" /></cc:Work></rdf:RDF></metadata><defs
     id="defs6" /><g
     transform="matrix(1.3333333,0,0,-1.3333333,0,85.306667)"
     id="g10"><g
       transform="scale(0.1)"
       id="g12"><path
         id="path14"
         style="fill:#2e2d2d;fill-opacity:1;fill-rule:nonzero;stroke:none"
         d="M 603.938,146.793 C 521.406,93.0859 424.516,63.9766 325,63.9766 c -99.516,0 -196.406,29.1093 -278.9375,82.8164 L 0,100.762 C 95.3242,35.4766 208.883,0 325,0 441.117,0 554.676,35.4766 650,100.762 l -46.062,46.031" /><path
         id="path16"
         style="fill:#2e2d2d;fill-opacity:1;fill-rule:nonzero;stroke:none"
         d="m 325,247.91 c 39.695,0 71.973,32.242 71.973,71.973 h 47.984 C 444.957,253.699 391.152,199.926 325,199.926 Z m 0,-119.957 c 98.941,0 179.133,80.16 179.133,179.102 0,127.953 -179.133,332.711 -179.133,332.711 0,0 -179.133,-204.758 -179.133,-332.711 0,-98.942 80.192,-179.102 179.133,-179.102" /></g></g></svg>