<?xml version="1.0" encoding="UTF-8" standalone="no"?>
<!DOCTYPE svg PUBLIC "-//W3C//DTD SVG 1.1//EN"
 "http://www.w3.org/Graphics/SVG/1.1/DTD/svg11.dtd">
<!-- Generated by graphviz version 2.40.1 (20161225.0304)
 -->
<!-- Title: dependencies Pages: 1 -->
<svg width="901pt" height="284pt"
 viewBox="0.00 0.00 901.00 284.00" xmlns="http://www.w3.org/2000/svg" xmlns:xlink="http://www.w3.org/1999/xlink">
<g id="graph0" class="graph" transform="scale(1 1) rotate(0) translate(4 280)">
<title>dependencies</title>
<polygon fill="#ffffff" stroke="transparent" points="-4,4 -4,-280 897,-280 897,4 -4,4"/>
<text text-anchor="start" x="425.5091" y="-42.4" font-family="sans-serif" font-weight="bold" font-size="14.00" fill="#000000">Legend</text>
<polygon fill="#ffffb3" stroke="transparent" points="212.5,-10 212.5,-30 232.5,-30 232.5,-10 212.5,-10"/>
<text text-anchor="start" x="236.129" y="-15.4" font-family="sans-serif" font-size="14.00" fill="#000000"> &#160;Declarations</text>
<polygon fill="#8dd3c7" stroke="transparent" points="325.5,-10 325.5,-30 345.5,-30 345.5,-10 325.5,-10"/>
<text text-anchor="start" x="349.2251" y="-15.4" font-family="sans-serif" font-size="14.00" fill="#000000"> &#160;Module</text>
<polygon fill="#80b1d3" stroke="transparent" points="411.5,-10 411.5,-30 431.5,-30 431.5,-10 411.5,-10"/>
<text text-anchor="start" x="435.2812" y="-15.4" font-family="sans-serif" font-size="14.00" fill="#000000"> &#160;Bootstrap</text>
<polygon fill="#fdb462" stroke="transparent" points="508.5,-10 508.5,-30 528.5,-30 528.5,-10 508.5,-10"/>
<text text-anchor="start" x="532.1732" y="-15.4" font-family="sans-serif" font-size="14.00" fill="#000000"> &#160;Providers</text>
<polygon fill="#fb8072" stroke="transparent" points="604.5,-10 604.5,-30 624.5,-30 624.5,-10 604.5,-10"/>
<text text-anchor="start" x="628.2258" y="-15.4" font-family="sans-serif" font-size="14.00" fill="#000000"> &#160;Exports</text>
<g id="clust1" class="cluster">
<title>cluster_AppModule</title>
<polygon fill="none" stroke="#000000" stroke-dasharray="1,5" points="8,-70 8,-268 885,-268 885,-70 8,-70"/>
</g>
<g id="clust2" class="cluster">
<title>cluster_AppModule_declarations</title>
<polygon fill="none" stroke="#000000" points="622,-78 622,-130 877,-130 877,-78 622,-78"/>
</g>
<g id="clust5" class="cluster">
<title>cluster_AppModule_imports</title>
<polygon fill="none" stroke="#000000" points="470,-78 470,-130 614,-130 614,-78 470,-78"/>
</g>
<g id="clust7" class="cluster">
<title>cluster_AppModule_bootstrap</title>
<polygon fill="none" stroke="#000000" points="401,-208 401,-260 525,-260 525,-208 401,-208"/>
</g>
<g id="clust8" class="cluster">
<title>cluster_AppModule_providers</title>
<polygon fill="none" stroke="#000000" points="16,-78 16,-130 462,-130 462,-78 16,-78"/>
</g>
<!-- AppComponent -->
<g id="node1" class="node">
<title>AppComponent</title>
<polygon fill="#ffffb3" stroke="#000000" points="868.9399,-122 763.0601,-122 763.0601,-86 868.9399,-86 868.9399,-122"/>
<text text-anchor="middle" x="816" y="-99.8" font-family="Times,serif" font-size="14.00" fill="#000000">AppComponent</text>
</g>
<!-- AppModule -->
<g id="node3" class="node">
<title>AppModule</title>
<polygon fill="#8dd3c7" stroke="#000000" points="504.6571,-187 501.6571,-191 480.6571,-191 477.6571,-187 421.3429,-187 421.3429,-151 504.6571,-151 504.6571,-187"/>
<text text-anchor="middle" x="463" y="-164.8" font-family="Times,serif" font-size="14.00" fill="#000000">AppModule</text>
</g>
<!-- AppComponent&#45;&gt;AppModule -->
<g id="edge1" class="edge">
<title>AppComponent&#45;&gt;AppModule</title>
<path fill="none" stroke="#000000" d="M816,-122.2843C816,-143.3211 816,-175 816,-175 816,-175 514.8799,-175 514.8799,-175"/>
<polygon fill="#000000" stroke="#000000" points="514.88,-171.5001 504.8799,-175 514.8799,-178.5001 514.88,-171.5001"/>
</g>
<!-- HomeComponent -->
<g id="node2" class="node">
<title>HomeComponent</title>
<polygon fill="#ffffb3" stroke="#000000" points="745.5451,-122 630.4549,-122 630.4549,-86 745.5451,-86 745.5451,-122"/>
<text text-anchor="middle" x="688" y="-99.8" font-family="Times,serif" font-size="14.00" fill="#000000">HomeComponent</text>
</g>
<!-- HomeComponent&#45;&gt;AppModule -->
<g id="edge2" class="edge">
<title>HomeComponent&#45;&gt;AppModule</title>
<path fill="none" stroke="#000000" d="M688,-122.0225C688,-139.3734 688,-163 688,-163 688,-163 514.7935,-163 514.7935,-163"/>
<polygon fill="#000000" stroke="#000000" points="514.7935,-159.5001 504.7935,-163 514.7934,-166.5001 514.7935,-159.5001"/>
</g>
<!-- AppComponent  -->
<g id="node5" class="node">
<title>AppComponent </title>
<polygon fill="#80b1d3" stroke="#000000" points="517.439,-252 408.561,-252 408.561,-216 517.439,-216 517.439,-252"/>
<text text-anchor="middle" x="463" y="-229.8" font-family="Times,serif" font-size="14.00" fill="#000000">AppComponent </text>
</g>
<!-- AppModule&#45;&gt;AppComponent  -->
<g id="edge4" class="edge">
<title>AppModule&#45;&gt;AppComponent </title>
<path fill="none" stroke="#000000" stroke-dasharray="1,5" d="M463,-187.1061C463,-187.1061 463,-205.991 463,-205.991"/>
<polygon fill="#000000" stroke="#000000" points="459.5001,-205.9909 463,-215.991 466.5001,-205.991 459.5001,-205.9909"/>
</g>
<!-- AppRoutingModule -->
<g id="node4" class="node">
<title>AppRoutingModule</title>
<polygon fill="#8dd3c7" stroke="#000000" points="606.2744,-122 603.2744,-126 582.2744,-126 579.2744,-122 477.7256,-122 477.7256,-86 606.2744,-86 606.2744,-122"/>
<text text-anchor="middle" x="542" y="-99.8" font-family="Times,serif" font-size="14.00" fill="#000000">AppRoutingModule</text>
</g>
<!-- AppRoutingModule&#45;&gt;AppModule -->
<g id="edge3" class="edge">
<title>AppRoutingModule&#45;&gt;AppModule</title>
<path fill="none" stroke="#000000" d="M491.2206,-122.1061C491.2206,-122.1061 491.2206,-140.991 491.2206,-140.991"/>
<polygon fill="#000000" stroke="#000000" points="487.7206,-140.9909 491.2206,-150.991 494.7206,-140.991 487.7206,-140.9909"/>
</g>
<!-- ModuleService -->
<g id="node6" class="node">
<title>ModuleService</title>
<ellipse fill="#fdb462" stroke="#000000" cx="384" cy="-104" rx="70.0635" ry="18"/>
<text text-anchor="middle" x="384" y="-99.8" font-family="Times,serif" font-size="14.00" fill="#000000">ModuleService</text>
</g>
<!-- ModuleService&#45;&gt;AppModule -->
<g id="edge5" class="edge">
<title>ModuleService&#45;&gt;AppModule</title>
<path fill="none" stroke="#000000" d="M437.6018,-115.6207C437.6018,-115.6207 437.6018,-140.8534 437.6018,-140.8534"/>
<polygon fill="#000000" stroke="#000000" points="434.1019,-140.8533 437.6018,-150.8534 441.1019,-140.8534 434.1019,-140.8533"/>
</g>
<!-- RecordService -->
<g id="node7" class="node">
<title>RecordService</title>
<ellipse fill="#fdb462" stroke="#000000" cx="228" cy="-104" rx="67.7548" ry="18"/>
<text text-anchor="middle" x="228" y="-99.8" font-family="Times,serif" font-size="14.00" fill="#000000">RecordService</text>
</g>
<!-- RecordService&#45;&gt;AppModule -->
<g id="edge6" class="edge">
<title>RecordService&#45;&gt;AppModule</title>
<path fill="none" stroke="#000000" d="M228,-122.0225C228,-139.3734 228,-163 228,-163 228,-163 411.2575,-163 411.2575,-163"/>
<polygon fill="#000000" stroke="#000000" points="411.2575,-166.5001 421.2575,-163 411.2575,-159.5001 411.2575,-166.5001"/>
</g>
<!-- TaskService -->
<g id="node8" class="node">
<title>TaskService</title>
<ellipse fill="#fdb462" stroke="#000000" cx="83" cy="-104" rx="58.5251" ry="18"/>
<text text-anchor="middle" x="83" y="-99.8" font-family="Times,serif" font-size="14.00" fill="#000000">TaskService</text>
</g>
<!-- TaskService&#45;&gt;AppModule -->
<g id="edge7" class="edge">
<title>TaskService&#45;&gt;AppModule</title>
<path fill="none" stroke="#000000" d="M83,-122.2843C83,-143.3211 83,-175 83,-175 83,-175 411.2463,-175 411.2463,-175"/>
<polygon fill="#000000" stroke="#000000" points="411.2464,-178.5001 421.2463,-175 411.2463,-171.5001 411.2464,-178.5001"/>
</g>
</g>
</svg>
