<?xml version="1.0" encoding="UTF-8" standalone="no"?>
<!DOCTYPE svg PUBLIC "-//W3C//DTD SVG 1.1//EN"
 "http://www.w3.org/Graphics/SVG/1.1/DTD/svg11.dtd">
<!-- Generated by graphviz version 2.40.1 (20161225.0304)
 -->
<!-- Title: dependencies Pages: 1 -->
<svg width="747pt" height="284pt"
 viewBox="0.00 0.00 747.00 284.00" xmlns="http://www.w3.org/2000/svg" xmlns:xlink="http://www.w3.org/1999/xlink">
<g id="graph0" class="graph" transform="scale(1 1) rotate(0) translate(4 280)">
<title>dependencies</title>
<polygon fill="#ffffff" stroke="transparent" points="-4,4 -4,-280 743,-280 743,4 -4,4"/>
<text text-anchor="start" x="348.5091" y="-42.4" font-family="sans-serif" font-weight="bold" font-size="14.00" fill="#000000">Legend</text>
<polygon fill="#ffffb3" stroke="transparent" points="135.5,-10 135.5,-30 155.5,-30 155.5,-10 135.5,-10"/>
<text text-anchor="start" x="159.129" y="-15.4" font-family="sans-serif" font-size="14.00" fill="#000000"> &#160;Declarations</text>
<polygon fill="#8dd3c7" stroke="transparent" points="248.5,-10 248.5,-30 268.5,-30 268.5,-10 248.5,-10"/>
<text text-anchor="start" x="272.2251" y="-15.4" font-family="sans-serif" font-size="14.00" fill="#000000"> &#160;Module</text>
<polygon fill="#80b1d3" stroke="transparent" points="334.5,-10 334.5,-30 354.5,-30 354.5,-10 334.5,-10"/>
<text text-anchor="start" x="358.2812" y="-15.4" font-family="sans-serif" font-size="14.00" fill="#000000"> &#160;Bootstrap</text>
<polygon fill="#fdb462" stroke="transparent" points="431.5,-10 431.5,-30 451.5,-30 451.5,-10 431.5,-10"/>
<text text-anchor="start" x="455.1732" y="-15.4" font-family="sans-serif" font-size="14.00" fill="#000000"> &#160;Providers</text>
<polygon fill="#fb8072" stroke="transparent" points="527.5,-10 527.5,-30 547.5,-30 547.5,-10 527.5,-10"/>
<text text-anchor="start" x="551.2258" y="-15.4" font-family="sans-serif" font-size="14.00" fill="#000000"> &#160;Exports</text>
<g id="clust1" class="cluster">
<title>cluster_AppModule</title>
<polygon fill="none" stroke="#000000" stroke-dasharray="1,5" points="8,-70 8,-268 731,-268 731,-70 8,-70"/>
</g>
<g id="clust2" class="cluster">
<title>cluster_AppModule_declarations</title>
<polygon fill="none" stroke="#000000" points="468,-78 468,-130 723,-130 723,-78 468,-78"/>
</g>
<g id="clust5" class="cluster">
<title>cluster_AppModule_imports</title>
<polygon fill="none" stroke="#000000" points="316,-78 316,-130 460,-130 460,-78 316,-78"/>
</g>
<g id="clust7" class="cluster">
<title>cluster_AppModule_bootstrap</title>
<polygon fill="none" stroke="#000000" points="326,-208 326,-260 450,-260 450,-208 326,-208"/>
</g>
<g id="clust8" class="cluster">
<title>cluster_AppModule_providers</title>
<polygon fill="none" stroke="#000000" points="16,-78 16,-130 308,-130 308,-78 16,-78"/>
</g>
<!-- AppComponent -->
<g id="node1" class="node">
<title>AppComponent</title>
<polygon fill="#ffffb3" stroke="#000000" points="714.9399,-122 609.0601,-122 609.0601,-86 714.9399,-86 714.9399,-122"/>
<text text-anchor="middle" x="662" y="-99.8" font-family="Times,serif" font-size="14.00" fill="#000000">AppComponent</text>
</g>
<!-- AppModule -->
<g id="node3" class="node">
<title>AppModule</title>
<polygon fill="#8dd3c7" stroke="#000000" points="429.6571,-187 426.6571,-191 405.6571,-191 402.6571,-187 346.3429,-187 346.3429,-151 429.6571,-151 429.6571,-187"/>
<text text-anchor="middle" x="388" y="-164.8" font-family="Times,serif" font-size="14.00" fill="#000000">AppModule</text>
</g>
<!-- AppComponent&#45;&gt;AppModule -->
<g id="edge1" class="edge">
<title>AppComponent&#45;&gt;AppModule</title>
<path fill="none" stroke="#000000" d="M662,-122.2843C662,-143.3211 662,-175 662,-175 662,-175 439.913,-175 439.913,-175"/>
<polygon fill="#000000" stroke="#000000" points="439.913,-171.5001 429.913,-175 439.9129,-178.5001 439.913,-171.5001"/>
</g>
<!-- HomeComponent -->
<g id="node2" class="node">
<title>HomeComponent</title>
<polygon fill="#ffffb3" stroke="#000000" points="591.5451,-122 476.4549,-122 476.4549,-86 591.5451,-86 591.5451,-122"/>
<text text-anchor="middle" x="534" y="-99.8" font-family="Times,serif" font-size="14.00" fill="#000000">HomeComponent</text>
</g>
<!-- HomeComponent&#45;&gt;AppModule -->
<g id="edge2" class="edge">
<title>HomeComponent&#45;&gt;AppModule</title>
<path fill="none" stroke="#000000" d="M534,-122.0225C534,-139.3734 534,-163 534,-163 534,-163 439.8377,-163 439.8377,-163"/>
<polygon fill="#000000" stroke="#000000" points="439.8378,-159.5001 429.8377,-163 439.8377,-166.5001 439.8378,-159.5001"/>
</g>
<!-- AppComponent  -->
<g id="node5" class="node">
<title>AppComponent </title>
<polygon fill="#80b1d3" stroke="#000000" points="442.439,-252 333.561,-252 333.561,-216 442.439,-216 442.439,-252"/>
<text text-anchor="middle" x="388" y="-229.8" font-family="Times,serif" font-size="14.00" fill="#000000">AppComponent </text>
</g>
<!-- AppModule&#45;&gt;AppComponent  -->
<g id="edge4" class="edge">
<title>AppModule&#45;&gt;AppComponent </title>
<path fill="none" stroke="#000000" stroke-dasharray="1,5" d="M388,-187.1061C388,-187.1061 388,-205.991 388,-205.991"/>
<polygon fill="#000000" stroke="#000000" points="384.5001,-205.9909 388,-215.991 391.5001,-205.991 384.5001,-205.9909"/>
</g>
<!-- AppRoutingModule -->
<g id="node4" class="node">
<title>AppRoutingModule</title>
<polygon fill="#8dd3c7" stroke="#000000" points="452.2744,-122 449.2744,-126 428.2744,-126 425.2744,-122 323.7256,-122 323.7256,-86 452.2744,-86 452.2744,-122"/>
<text text-anchor="middle" x="388" y="-99.8" font-family="Times,serif" font-size="14.00" fill="#000000">AppRoutingModule</text>
</g>
<!-- AppRoutingModule&#45;&gt;AppModule -->
<g id="edge3" class="edge">
<title>AppRoutingModule&#45;&gt;AppModule</title>
<path fill="none" stroke="#000000" d="M388,-122.1061C388,-122.1061 388,-140.991 388,-140.991"/>
<polygon fill="#000000" stroke="#000000" points="384.5001,-140.9909 388,-150.991 391.5001,-140.991 384.5001,-140.9909"/>
</g>
<!-- ModuleService -->
<g id="node6" class="node">
<title>ModuleService</title>
<ellipse fill="#fdb462" stroke="#000000" cx="230" cy="-104" rx="70.0635" ry="18"/>
<text text-anchor="middle" x="230" y="-99.8" font-family="Times,serif" font-size="14.00" fill="#000000">ModuleService</text>
</g>
<!-- ModuleService&#45;&gt;AppModule -->
<g id="edge5" class="edge">
<title>ModuleService&#45;&gt;AppModule</title>
<path fill="none" stroke="#000000" d="M230,-122.0225C230,-139.3734 230,-163 230,-163 230,-163 336.0737,-163 336.0737,-163"/>
<polygon fill="#000000" stroke="#000000" points="336.0738,-166.5001 346.0737,-163 336.0737,-159.5001 336.0738,-166.5001"/>
</g>
<!-- TaskService -->
<g id="node7" class="node">
<title>TaskService</title>
<ellipse fill="#fdb462" stroke="#000000" cx="83" cy="-104" rx="58.5251" ry="18"/>
<text text-anchor="middle" x="83" y="-99.8" font-family="Times,serif" font-size="14.00" fill="#000000">TaskService</text>
</g>
<!-- TaskService&#45;&gt;AppModule -->
<g id="edge6" class="edge">
<title>TaskService&#45;&gt;AppModule</title>
<path fill="none" stroke="#000000" d="M83,-122.2843C83,-143.3211 83,-175 83,-175 83,-175 336.2306,-175 336.2306,-175"/>
<polygon fill="#000000" stroke="#000000" points="336.2306,-178.5001 346.2306,-175 336.2305,-171.5001 336.2306,-178.5001"/>
</g>
</g>
</svg>
