<?xml version="1.0" encoding="UTF-8" standalone="no"?>
<!DOCTYPE svg PUBLIC "-//W3C//DTD SVG 1.1//EN"
 "http://www.w3.org/Graphics/SVG/1.1/DTD/svg11.dtd">
<!-- Generated by graphviz version 2.40.1 (20161225.0304)
 -->
<!-- Title: dependencies Pages: 1 -->
<svg width="2306pt" height="284pt"
 viewBox="0.00 0.00 2306.00 284.00" xmlns="http://www.w3.org/2000/svg" xmlns:xlink="http://www.w3.org/1999/xlink">
<g id="graph0" class="graph" transform="scale(1 1) rotate(0) translate(4 280)">
<title>dependencies</title>
<polygon fill="#ffffff" stroke="transparent" points="-4,4 -4,-280 2302,-280 2302,4 -4,4"/>
<text text-anchor="start" x="1128.0091" y="-42.4" font-family="sans-serif" font-weight="bold" font-size="14.00" fill="#000000">Legend</text>
<polygon fill="#ffffb3" stroke="transparent" points="915,-10 915,-30 935,-30 935,-10 915,-10"/>
<text text-anchor="start" x="938.629" y="-15.4" font-family="sans-serif" font-size="14.00" fill="#000000"> &#160;Declarations</text>
<polygon fill="#8dd3c7" stroke="transparent" points="1028,-10 1028,-30 1048,-30 1048,-10 1028,-10"/>
<text text-anchor="start" x="1051.7251" y="-15.4" font-family="sans-serif" font-size="14.00" fill="#000000"> &#160;Module</text>
<polygon fill="#80b1d3" stroke="transparent" points="1114,-10 1114,-30 1134,-30 1134,-10 1114,-10"/>
<text text-anchor="start" x="1137.7812" y="-15.4" font-family="sans-serif" font-size="14.00" fill="#000000"> &#160;Bootstrap</text>
<polygon fill="#fdb462" stroke="transparent" points="1211,-10 1211,-30 1231,-30 1231,-10 1211,-10"/>
<text text-anchor="start" x="1234.6732" y="-15.4" font-family="sans-serif" font-size="14.00" fill="#000000"> &#160;Providers</text>
<polygon fill="#fb8072" stroke="transparent" points="1307,-10 1307,-30 1327,-30 1327,-10 1307,-10"/>
<text text-anchor="start" x="1330.7258" y="-15.4" font-family="sans-serif" font-size="14.00" fill="#000000"> &#160;Exports</text>
<g id="clust1" class="cluster">
<title>cluster_AppModule</title>
<polygon fill="none" stroke="#000000" stroke-dasharray="1,5" points="8,-70 8,-268 885,-268 885,-70 8,-70"/>
</g>
<g id="clust2" class="cluster">
<title>cluster_AppModule_declarations</title>
<polygon fill="none" stroke="#000000" points="622,-78 622,-130 877,-130 877,-78 622,-78"/>
</g>
<g id="clust5" class="cluster">
<title>cluster_AppModule_imports</title>
<polygon fill="none" stroke="#000000" points="470,-78 470,-130 614,-130 614,-78 470,-78"/>
</g>
<g id="clust7" class="cluster">
<title>cluster_AppModule_bootstrap</title>
<polygon fill="none" stroke="#000000" points="401,-208 401,-260 525,-260 525,-208 401,-208"/>
</g>
<g id="clust8" class="cluster">
<title>cluster_AppModule_providers</title>
<polygon fill="none" stroke="#000000" points="16,-78 16,-130 462,-130 462,-78 16,-78"/>
</g>
<g id="clust21" class="cluster">
<title>cluster_ModulesModule</title>
<polygon fill="none" stroke="#000000" stroke-dasharray="1,5" points="893,-70 893,-195 2290,-195 2290,-70 893,-70"/>
</g>
<g id="clust22" class="cluster">
<title>cluster_ModulesModule_declarations</title>
<polygon fill="none" stroke="#000000" points="1203,-78 1203,-130 2282,-130 2282,-78 1203,-78"/>
</g>
<g id="clust30" class="cluster">
<title>cluster_ModulesModule_imports</title>
<polygon fill="none" stroke="#000000" points="901,-78 901,-130 1195,-130 1195,-78 901,-78"/>
</g>
<!-- AppComponent -->
<g id="node1" class="node">
<title>AppComponent</title>
<polygon fill="#ffffb3" stroke="#000000" points="868.9399,-122 763.0601,-122 763.0601,-86 868.9399,-86 868.9399,-122"/>
<text text-anchor="middle" x="816" y="-99.8" font-family="Times,serif" font-size="14.00" fill="#000000">AppComponent</text>
</g>
<!-- AppModule -->
<g id="node3" class="node">
<title>AppModule</title>
<polygon fill="#8dd3c7" stroke="#000000" points="504.6571,-187 501.6571,-191 480.6571,-191 477.6571,-187 421.3429,-187 421.3429,-151 504.6571,-151 504.6571,-187"/>
<text text-anchor="middle" x="463" y="-164.8" font-family="Times,serif" font-size="14.00" fill="#000000">AppModule</text>
</g>
<!-- AppComponent&#45;&gt;AppModule -->
<g id="edge1" class="edge">
<title>AppComponent&#45;&gt;AppModule</title>
<path fill="none" stroke="#000000" d="M816,-122.0336C816,-139.0597 816,-162 816,-162 816,-162 514.8799,-162 514.8799,-162"/>
<polygon fill="#000000" stroke="#000000" points="514.88,-158.5001 504.8799,-162 514.8799,-165.5001 514.88,-158.5001"/>
</g>
<!-- HomeComponent -->
<g id="node2" class="node">
<title>HomeComponent</title>
<polygon fill="#ffffb3" stroke="#000000" points="745.5451,-122 630.4549,-122 630.4549,-86 745.5451,-86 745.5451,-122"/>
<text text-anchor="middle" x="688" y="-99.8" font-family="Times,serif" font-size="14.00" fill="#000000">HomeComponent</text>
</g>
<!-- HomeComponent&#45;&gt;AppModule -->
<g id="edge2" class="edge">
<title>HomeComponent&#45;&gt;AppModule</title>
<path fill="none" stroke="#000000" d="M688,-122.2396C688,-137.5706 688,-157 688,-157 688,-157 514.7935,-157 514.7935,-157"/>
<polygon fill="#000000" stroke="#000000" points="514.7935,-153.5001 504.7935,-157 514.7934,-160.5001 514.7935,-153.5001"/>
</g>
<!-- AppComponent  -->
<g id="node5" class="node">
<title>AppComponent </title>
<polygon fill="#80b1d3" stroke="#000000" points="517.439,-252 408.561,-252 408.561,-216 517.439,-216 517.439,-252"/>
<text text-anchor="middle" x="463" y="-229.8" font-family="Times,serif" font-size="14.00" fill="#000000">AppComponent </text>
</g>
<!-- AppModule&#45;&gt;AppComponent  -->
<g id="edge4" class="edge">
<title>AppModule&#45;&gt;AppComponent </title>
<path fill="none" stroke="#000000" stroke-dasharray="1,5" d="M463,-187.1061C463,-187.1061 463,-205.991 463,-205.991"/>
<polygon fill="#000000" stroke="#000000" points="459.5001,-205.9909 463,-215.991 466.5001,-205.991 459.5001,-205.9909"/>
</g>
<!-- AppRoutingModule -->
<g id="node4" class="node">
<title>AppRoutingModule</title>
<polygon fill="#8dd3c7" stroke="#000000" points="606.2744,-122 603.2744,-126 582.2744,-126 579.2744,-122 477.7256,-122 477.7256,-86 606.2744,-86 606.2744,-122"/>
<text text-anchor="middle" x="542" y="-99.8" font-family="Times,serif" font-size="14.00" fill="#000000">AppRoutingModule</text>
</g>
<!-- AppRoutingModule&#45;&gt;AppModule -->
<g id="edge3" class="edge">
<title>AppRoutingModule&#45;&gt;AppModule</title>
<path fill="none" stroke="#000000" d="M491.2206,-122.1061C491.2206,-122.1061 491.2206,-140.991 491.2206,-140.991"/>
<polygon fill="#000000" stroke="#000000" points="487.7206,-140.9909 491.2206,-150.991 494.7206,-140.991 487.7206,-140.9909"/>
</g>
<!-- ModuleService -->
<g id="node6" class="node">
<title>ModuleService</title>
<ellipse fill="#fdb462" stroke="#000000" cx="384" cy="-104" rx="70.0635" ry="18"/>
<text text-anchor="middle" x="384" y="-99.8" font-family="Times,serif" font-size="14.00" fill="#000000">ModuleService</text>
</g>
<!-- ModuleService&#45;&gt;AppModule -->
<g id="edge5" class="edge">
<title>ModuleService&#45;&gt;AppModule</title>
<path fill="none" stroke="#000000" d="M437.6018,-115.6207C437.6018,-115.6207 437.6018,-140.8534 437.6018,-140.8534"/>
<polygon fill="#000000" stroke="#000000" points="434.1019,-140.8533 437.6018,-150.8534 441.1019,-140.8534 434.1019,-140.8533"/>
</g>
<!-- RecordService -->
<g id="node7" class="node">
<title>RecordService</title>
<ellipse fill="#fdb462" stroke="#000000" cx="228" cy="-104" rx="67.7548" ry="18"/>
<text text-anchor="middle" x="228" y="-99.8" font-family="Times,serif" font-size="14.00" fill="#000000">RecordService</text>
</g>
<!-- RecordService&#45;&gt;AppModule -->
<g id="edge6" class="edge">
<title>RecordService&#45;&gt;AppModule</title>
<path fill="none" stroke="#000000" d="M228,-122.0225C228,-139.3734 228,-163 228,-163 228,-163 411.2575,-163 411.2575,-163"/>
<polygon fill="#000000" stroke="#000000" points="411.2575,-166.5001 421.2575,-163 411.2575,-159.5001 411.2575,-166.5001"/>
</g>
<!-- TaskService -->
<g id="node8" class="node">
<title>TaskService</title>
<ellipse fill="#fdb462" stroke="#000000" cx="83" cy="-104" rx="58.5251" ry="18"/>
<text text-anchor="middle" x="83" y="-99.8" font-family="Times,serif" font-size="14.00" fill="#000000">TaskService</text>
</g>
<!-- TaskService&#45;&gt;AppModule -->
<g id="edge7" class="edge">
<title>TaskService&#45;&gt;AppModule</title>
<path fill="none" stroke="#000000" d="M83,-122.2843C83,-143.3211 83,-175 83,-175 83,-175 411.2463,-175 411.2463,-175"/>
<polygon fill="#000000" stroke="#000000" points="411.2464,-178.5001 421.2463,-175 411.2463,-171.5001 411.2464,-178.5001"/>
</g>
<!-- AddTaskComponent -->
<g id="node9" class="node">
<title>AddTaskComponent</title>
<polygon fill="#ffffb3" stroke="#000000" points="2274.1513,-122 2141.8487,-122 2141.8487,-86 2274.1513,-86 2274.1513,-122"/>
<text text-anchor="middle" x="2208" y="-99.8" font-family="Times,serif" font-size="14.00" fill="#000000">AddTaskComponent</text>
</g>
<!-- ModulesModule -->
<g id="node16" class="node">
<title>ModulesModule</title>
<polygon fill="#8dd3c7" stroke="#000000" points="1615.0452,-187 1612.0452,-191 1591.0452,-191 1588.0452,-187 1506.9548,-187 1506.9548,-151 1615.0452,-151 1615.0452,-187"/>
<text text-anchor="middle" x="1561" y="-164.8" font-family="Times,serif" font-size="14.00" fill="#000000">ModulesModule</text>
</g>
<!-- AddTaskComponent&#45;&gt;ModulesModule -->
<g id="edge8" class="edge">
<title>AddTaskComponent&#45;&gt;ModulesModule</title>
<path fill="none" stroke="#000000" d="M2208,-122.0109C2208,-144.4852 2208,-180 2208,-180 2208,-180 1625.05,-180 1625.05,-180"/>
<polygon fill="#000000" stroke="#000000" points="1625.0501,-176.5001 1615.05,-180 1625.05,-183.5001 1625.0501,-176.5001"/>
</g>
<!-- ConfigurationComponent -->
<g id="node10" class="node">
<title>ConfigurationComponent</title>
<polygon fill="#ffffb3" stroke="#000000" points="2123.8766,-122 1964.1234,-122 1964.1234,-86 2123.8766,-86 2123.8766,-122"/>
<text text-anchor="middle" x="2044" y="-99.8" font-family="Times,serif" font-size="14.00" fill="#000000">ConfigurationComponent</text>
</g>
<!-- ConfigurationComponent&#45;&gt;ModulesModule -->
<g id="edge9" class="edge">
<title>ConfigurationComponent&#45;&gt;ModulesModule</title>
<path fill="none" stroke="#000000" d="M2044,-122.1289C2044,-142.5724 2044,-173 2044,-173 2044,-173 1625.4674,-173 1625.4674,-173"/>
<polygon fill="#000000" stroke="#000000" points="1625.4674,-169.5001 1615.4674,-173 1625.4673,-176.5001 1625.4674,-169.5001"/>
</g>
<!-- DashboardComponent -->
<g id="node11" class="node">
<title>DashboardComponent</title>
<polygon fill="#ffffb3" stroke="#000000" points="1945.9734,-122 1804.0266,-122 1804.0266,-86 1945.9734,-86 1945.9734,-122"/>
<text text-anchor="middle" x="1875" y="-99.8" font-family="Times,serif" font-size="14.00" fill="#000000">DashboardComponent</text>
</g>
<!-- DashboardComponent&#45;&gt;ModulesModule -->
<g id="edge10" class="edge">
<title>DashboardComponent&#45;&gt;ModulesModule</title>
<path fill="none" stroke="#000000" d="M1875,-122.2667C1875,-140.5552 1875,-166 1875,-166 1875,-166 1625.3362,-166 1625.3362,-166"/>
<polygon fill="#000000" stroke="#000000" points="1625.3362,-162.5001 1615.3362,-166 1625.3361,-169.5001 1625.3362,-162.5001"/>
</g>
<!-- HistoricalsComponent -->
<g id="node12" class="node">
<title>HistoricalsComponent</title>
<polygon fill="#ffffb3" stroke="#000000" points="1785.9804,-122 1644.0196,-122 1644.0196,-86 1785.9804,-86 1785.9804,-122"/>
<text text-anchor="middle" x="1715" y="-99.8" font-family="Times,serif" font-size="14.00" fill="#000000">HistoricalsComponent</text>
</g>
<!-- HistoricalsComponent&#45;&gt;ModulesModule -->
<g id="edge11" class="edge">
<title>HistoricalsComponent&#45;&gt;ModulesModule</title>
<path fill="none" stroke="#000000" d="M1715,-122.0091C1715,-138.0494 1715,-159 1715,-159 1715,-159 1625.2946,-159 1625.2946,-159"/>
<polygon fill="#000000" stroke="#000000" points="1625.2947,-155.5001 1615.2946,-159 1625.2946,-162.5001 1625.2947,-155.5001"/>
</g>
<!-- ModulesComponent -->
<g id="node13" class="node">
<title>ModulesComponent</title>
<polygon fill="#ffffb3" stroke="#000000" points="1626.3272,-122 1495.6728,-122 1495.6728,-86 1626.3272,-86 1626.3272,-122"/>
<text text-anchor="middle" x="1561" y="-99.8" font-family="Times,serif" font-size="14.00" fill="#000000">ModulesComponent</text>
</g>
<!-- ModulesComponent&#45;&gt;ModulesModule -->
<g id="edge12" class="edge">
<title>ModulesComponent&#45;&gt;ModulesModule</title>
<path fill="none" stroke="#000000" d="M1561,-122.1061C1561,-122.1061 1561,-140.991 1561,-140.991"/>
<polygon fill="#000000" stroke="#000000" points="1557.5001,-140.9909 1561,-150.991 1564.5001,-140.991 1557.5001,-140.9909"/>
</g>
<!-- SparklineComponent -->
<g id="node14" class="node">
<title>SparklineComponent</title>
<polygon fill="#ffffb3" stroke="#000000" points="1477.486,-122 1342.514,-122 1342.514,-86 1477.486,-86 1477.486,-122"/>
<text text-anchor="middle" x="1410" y="-99.8" font-family="Times,serif" font-size="14.00" fill="#000000">SparklineComponent</text>
</g>
<!-- SparklineComponent&#45;&gt;ModulesModule -->
<g id="edge13" class="edge">
<title>SparklineComponent&#45;&gt;ModulesModule</title>
<path fill="none" stroke="#000000" d="M1410,-122.2222C1410,-140.8285 1410,-167 1410,-167 1410,-167 1496.912,-167 1496.912,-167"/>
<polygon fill="#000000" stroke="#000000" points="1496.9121,-170.5001 1506.912,-167 1496.912,-163.5001 1496.9121,-170.5001"/>
</g>
<!-- TasksComponent -->
<g id="node15" class="node">
<title>TasksComponent</title>
<polygon fill="#ffffb3" stroke="#000000" points="1324.9888,-122 1211.0112,-122 1211.0112,-86 1324.9888,-86 1324.9888,-122"/>
<text text-anchor="middle" x="1268" y="-99.8" font-family="Times,serif" font-size="14.00" fill="#000000">TasksComponent</text>
</g>
<!-- TasksComponent&#45;&gt;ModulesModule -->
<g id="edge14" class="edge">
<title>TasksComponent&#45;&gt;ModulesModule</title>
<path fill="none" stroke="#000000" d="M1268,-122.2228C1268,-142.3652 1268,-172 1268,-172 1268,-172 1496.9178,-172 1496.9178,-172"/>
<polygon fill="#000000" stroke="#000000" points="1496.9179,-175.5001 1506.9178,-172 1496.9178,-168.5001 1496.9179,-175.5001"/>
</g>
<!-- MaterialModule -->
<g id="node17" class="node">
<title>MaterialModule</title>
<polygon fill="#8dd3c7" stroke="#000000" points="1187.4706,-122 1184.4706,-126 1163.4706,-126 1160.4706,-122 1080.5294,-122 1080.5294,-86 1187.4706,-86 1187.4706,-122"/>
<text text-anchor="middle" x="1134" y="-99.8" font-family="Times,serif" font-size="14.00" fill="#000000">MaterialModule</text>
</g>
<!-- MaterialModule&#45;&gt;ModulesModule -->
<g id="edge15" class="edge">
<title>MaterialModule&#45;&gt;ModulesModule</title>
<path fill="none" stroke="#000000" d="M1134,-122.0449C1134,-143.6623 1134,-177 1134,-177 1134,-177 1496.9202,-177 1496.9202,-177"/>
<polygon fill="#000000" stroke="#000000" points="1496.9202,-180.5001 1506.9202,-177 1496.9201,-173.5001 1496.9202,-180.5001"/>
</g>
<!-- ModulesRoutingModule -->
<g id="node18" class="node">
<title>ModulesRoutingModule</title>
<polygon fill="#8dd3c7" stroke="#000000" points="1062.6624,-122 1059.6624,-126 1038.6624,-126 1035.6624,-122 909.3376,-122 909.3376,-86 1062.6624,-86 1062.6624,-122"/>
<text text-anchor="middle" x="986" y="-99.8" font-family="Times,serif" font-size="14.00" fill="#000000">ModulesRoutingModule</text>
</g>
<!-- ModulesRoutingModule&#45;&gt;ModulesModule -->
<g id="edge16" class="edge">
<title>ModulesRoutingModule&#45;&gt;ModulesModule</title>
<path fill="none" stroke="#000000" d="M986,-122.0908C986,-145.1328 986,-182 986,-182 986,-182 1496.9054,-182 1496.9054,-182"/>
<polygon fill="#000000" stroke="#000000" points="1496.9054,-185.5001 1506.9054,-182 1496.9054,-178.5001 1496.9054,-185.5001"/>
</g>
</g>
</svg>
