<?xml version="1.0" encoding="UTF-8" standalone="no"?>
<!DOCTYPE svg PUBLIC "-//W3C//DTD SVG 1.1//EN"
 "http://www.w3.org/Graphics/SVG/1.1/DTD/svg11.dtd">
<!-- Generated by graphviz version 2.40.1 (20161225.0304)
 -->
<!-- Title: dependencies Pages: 1 -->
<svg width="1999pt" height="284pt"
 viewBox="0.00 0.00 1999.00 284.00" xmlns="http://www.w3.org/2000/svg" xmlns:xlink="http://www.w3.org/1999/xlink">
<g id="graph0" class="graph" transform="scale(1 1) rotate(0) translate(4 280)">
<title>dependencies</title>
<polygon fill="#ffffff" stroke="transparent" points="-4,4 -4,-280 1995,-280 1995,4 -4,4"/>
<text text-anchor="start" x="974.5091" y="-42.4" font-family="sans-serif" font-weight="bold" font-size="14.00" fill="#000000">Legend</text>
<polygon fill="#ffffb3" stroke="transparent" points="761.5,-10 761.5,-30 781.5,-30 781.5,-10 761.5,-10"/>
<text text-anchor="start" x="785.129" y="-15.4" font-family="sans-serif" font-size="14.00" fill="#000000"> &#160;Declarations</text>
<polygon fill="#8dd3c7" stroke="transparent" points="874.5,-10 874.5,-30 894.5,-30 894.5,-10 874.5,-10"/>
<text text-anchor="start" x="898.2251" y="-15.4" font-family="sans-serif" font-size="14.00" fill="#000000"> &#160;Module</text>
<polygon fill="#80b1d3" stroke="transparent" points="960.5,-10 960.5,-30 980.5,-30 980.5,-10 960.5,-10"/>
<text text-anchor="start" x="984.2812" y="-15.4" font-family="sans-serif" font-size="14.00" fill="#000000"> &#160;Bootstrap</text>
<polygon fill="#fdb462" stroke="transparent" points="1057.5,-10 1057.5,-30 1077.5,-30 1077.5,-10 1057.5,-10"/>
<text text-anchor="start" x="1081.1732" y="-15.4" font-family="sans-serif" font-size="14.00" fill="#000000"> &#160;Providers</text>
<polygon fill="#fb8072" stroke="transparent" points="1153.5,-10 1153.5,-30 1173.5,-30 1173.5,-10 1153.5,-10"/>
<text text-anchor="start" x="1177.2258" y="-15.4" font-family="sans-serif" font-size="14.00" fill="#000000"> &#160;Exports</text>
<g id="clust1" class="cluster">
<title>cluster_AppModule</title>
<polygon fill="none" stroke="#000000" stroke-dasharray="1,5" points="8,-70 8,-268 731,-268 731,-70 8,-70"/>
</g>
<g id="clust2" class="cluster">
<title>cluster_AppModule_declarations</title>
<polygon fill="none" stroke="#000000" points="468,-78 468,-130 723,-130 723,-78 468,-78"/>
</g>
<g id="clust5" class="cluster">
<title>cluster_AppModule_imports</title>
<polygon fill="none" stroke="#000000" points="316,-78 316,-130 460,-130 460,-78 316,-78"/>
</g>
<g id="clust7" class="cluster">
<title>cluster_AppModule_bootstrap</title>
<polygon fill="none" stroke="#000000" points="326,-208 326,-260 450,-260 450,-208 326,-208"/>
</g>
<g id="clust8" class="cluster">
<title>cluster_AppModule_providers</title>
<polygon fill="none" stroke="#000000" points="16,-78 16,-130 308,-130 308,-78 16,-78"/>
</g>
<g id="clust21" class="cluster">
<title>cluster_ModulesModule</title>
<polygon fill="none" stroke="#000000" stroke-dasharray="1,5" points="739,-70 739,-195 1983,-195 1983,-70 739,-70"/>
</g>
<g id="clust22" class="cluster">
<title>cluster_ModulesModule_declarations</title>
<polygon fill="none" stroke="#000000" points="1049,-78 1049,-130 1975,-130 1975,-78 1049,-78"/>
</g>
<g id="clust29" class="cluster">
<title>cluster_ModulesModule_imports</title>
<polygon fill="none" stroke="#000000" points="747,-78 747,-130 1041,-130 1041,-78 747,-78"/>
</g>
<!-- AppComponent -->
<g id="node1" class="node">
<title>AppComponent</title>
<polygon fill="#ffffb3" stroke="#000000" points="714.9399,-122 609.0601,-122 609.0601,-86 714.9399,-86 714.9399,-122"/>
<text text-anchor="middle" x="662" y="-99.8" font-family="Times,serif" font-size="14.00" fill="#000000">AppComponent</text>
</g>
<!-- AppModule -->
<g id="node3" class="node">
<title>AppModule</title>
<polygon fill="#8dd3c7" stroke="#000000" points="429.6571,-187 426.6571,-191 405.6571,-191 402.6571,-187 346.3429,-187 346.3429,-151 429.6571,-151 429.6571,-187"/>
<text text-anchor="middle" x="388" y="-164.8" font-family="Times,serif" font-size="14.00" fill="#000000">AppModule</text>
</g>
<!-- AppComponent&#45;&gt;AppModule -->
<g id="edge1" class="edge">
<title>AppComponent&#45;&gt;AppModule</title>
<path fill="none" stroke="#000000" d="M662,-122.2479C662,-145.0179 662,-181 662,-181 662,-181 439.913,-181 439.913,-181"/>
<polygon fill="#000000" stroke="#000000" points="439.913,-177.5001 429.913,-181 439.9129,-184.5001 439.913,-177.5001"/>
</g>
<!-- HomeComponent -->
<g id="node2" class="node">
<title>HomeComponent</title>
<polygon fill="#ffffb3" stroke="#000000" points="591.5451,-122 476.4549,-122 476.4549,-86 591.5451,-86 591.5451,-122"/>
<text text-anchor="middle" x="534" y="-99.8" font-family="Times,serif" font-size="14.00" fill="#000000">HomeComponent</text>
</g>
<!-- HomeComponent&#45;&gt;AppModule -->
<g id="edge2" class="edge">
<title>HomeComponent&#45;&gt;AppModule</title>
<path fill="none" stroke="#000000" d="M534,-122.2843C534,-143.3211 534,-175 534,-175 534,-175 439.8377,-175 439.8377,-175"/>
<polygon fill="#000000" stroke="#000000" points="439.8378,-171.5001 429.8377,-175 439.8377,-178.5001 439.8378,-171.5001"/>
</g>
<!-- AppComponent  -->
<g id="node5" class="node">
<title>AppComponent </title>
<polygon fill="#80b1d3" stroke="#000000" points="442.439,-252 333.561,-252 333.561,-216 442.439,-216 442.439,-252"/>
<text text-anchor="middle" x="388" y="-229.8" font-family="Times,serif" font-size="14.00" fill="#000000">AppComponent </text>
</g>
<!-- AppModule&#45;&gt;AppComponent  -->
<g id="edge4" class="edge">
<title>AppModule&#45;&gt;AppComponent </title>
<path fill="none" stroke="#000000" stroke-dasharray="1,5" d="M388,-187.1061C388,-187.1061 388,-205.991 388,-205.991"/>
<polygon fill="#000000" stroke="#000000" points="384.5001,-205.9909 388,-215.991 391.5001,-205.991 384.5001,-205.9909"/>
</g>
<!-- AppRoutingModule -->
<g id="node4" class="node">
<title>AppRoutingModule</title>
<polygon fill="#8dd3c7" stroke="#000000" points="452.2744,-122 449.2744,-126 428.2744,-126 425.2744,-122 323.7256,-122 323.7256,-86 452.2744,-86 452.2744,-122"/>
<text text-anchor="middle" x="388" y="-99.8" font-family="Times,serif" font-size="14.00" fill="#000000">AppRoutingModule</text>
</g>
<!-- AppRoutingModule&#45;&gt;AppModule -->
<g id="edge3" class="edge">
<title>AppRoutingModule&#45;&gt;AppModule</title>
<path fill="none" stroke="#000000" d="M388,-122.1061C388,-122.1061 388,-140.991 388,-140.991"/>
<polygon fill="#000000" stroke="#000000" points="384.5001,-140.9909 388,-150.991 391.5001,-140.991 384.5001,-140.9909"/>
</g>
<!-- ModuleService -->
<g id="node6" class="node">
<title>ModuleService</title>
<ellipse fill="#fdb462" stroke="#000000" cx="230" cy="-104" rx="70.0635" ry="18"/>
<text text-anchor="middle" x="230" y="-99.8" font-family="Times,serif" font-size="14.00" fill="#000000">ModuleService</text>
</g>
<!-- ModuleService&#45;&gt;AppModule -->
<g id="edge5" class="edge">
<title>ModuleService&#45;&gt;AppModule</title>
<path fill="none" stroke="#000000" d="M230,-122.0225C230,-139.3734 230,-163 230,-163 230,-163 336.0737,-163 336.0737,-163"/>
<polygon fill="#000000" stroke="#000000" points="336.0738,-166.5001 346.0737,-163 336.0737,-159.5001 336.0738,-166.5001"/>
</g>
<!-- TaskService -->
<g id="node7" class="node">
<title>TaskService</title>
<ellipse fill="#fdb462" stroke="#000000" cx="83" cy="-104" rx="58.5251" ry="18"/>
<text text-anchor="middle" x="83" y="-99.8" font-family="Times,serif" font-size="14.00" fill="#000000">TaskService</text>
</g>
<!-- TaskService&#45;&gt;AppModule -->
<g id="edge6" class="edge">
<title>TaskService&#45;&gt;AppModule</title>
<path fill="none" stroke="#000000" d="M83,-122.2843C83,-143.3211 83,-175 83,-175 83,-175 336.2306,-175 336.2306,-175"/>
<polygon fill="#000000" stroke="#000000" points="336.2306,-178.5001 346.2306,-175 336.2305,-171.5001 336.2306,-178.5001"/>
</g>
<!-- AddTaskComponent -->
<g id="node8" class="node">
<title>AddTaskComponent</title>
<polygon fill="#ffffb3" stroke="#000000" points="1967.1513,-122 1834.8487,-122 1834.8487,-86 1967.1513,-86 1967.1513,-122"/>
<text text-anchor="middle" x="1901" y="-99.8" font-family="Times,serif" font-size="14.00" fill="#000000">AddTaskComponent</text>
</g>
<!-- ModulesModule -->
<g id="node14" class="node">
<title>ModulesModule</title>
<polygon fill="#8dd3c7" stroke="#000000" points="1385.0452,-187 1382.0452,-191 1361.0452,-191 1358.0452,-187 1276.9548,-187 1276.9548,-151 1385.0452,-151 1385.0452,-187"/>
<text text-anchor="middle" x="1331" y="-164.8" font-family="Times,serif" font-size="14.00" fill="#000000">ModulesModule</text>
</g>
<!-- AddTaskComponent&#45;&gt;ModulesModule -->
<g id="edge7" class="edge">
<title>AddTaskComponent&#45;&gt;ModulesModule</title>
<path fill="none" stroke="#000000" d="M1901,-122.2921C1901,-144.2057 1901,-178 1901,-178 1901,-178 1395.1381,-178 1395.1381,-178"/>
<polygon fill="#000000" stroke="#000000" points="1395.1381,-174.5001 1385.1381,-178 1395.1381,-181.5001 1395.1381,-174.5001"/>
</g>
<!-- ConfigurationComponent -->
<g id="node9" class="node">
<title>ConfigurationComponent</title>
<polygon fill="#ffffb3" stroke="#000000" points="1816.8766,-122 1657.1234,-122 1657.1234,-86 1816.8766,-86 1816.8766,-122"/>
<text text-anchor="middle" x="1737" y="-99.8" font-family="Times,serif" font-size="14.00" fill="#000000">ConfigurationComponent</text>
</g>
<!-- ConfigurationComponent&#45;&gt;ModulesModule -->
<g id="edge8" class="edge">
<title>ConfigurationComponent&#45;&gt;ModulesModule</title>
<path fill="none" stroke="#000000" d="M1737,-122.1061C1737,-141.3391 1737,-169 1737,-169 1737,-169 1395.3337,-169 1395.3337,-169"/>
<polygon fill="#000000" stroke="#000000" points="1395.3337,-165.5001 1385.3337,-169 1395.3337,-172.5001 1395.3337,-165.5001"/>
</g>
<!-- DashboardComponent -->
<g id="node10" class="node">
<title>DashboardComponent</title>
<polygon fill="#ffffb3" stroke="#000000" points="1638.9734,-122 1497.0266,-122 1497.0266,-86 1638.9734,-86 1638.9734,-122"/>
<text text-anchor="middle" x="1568" y="-99.8" font-family="Times,serif" font-size="14.00" fill="#000000">DashboardComponent</text>
</g>
<!-- DashboardComponent&#45;&gt;ModulesModule -->
<g id="edge9" class="edge">
<title>DashboardComponent&#45;&gt;ModulesModule</title>
<path fill="none" stroke="#000000" d="M1568,-122.027C1568,-138.3976 1568,-160 1568,-160 1568,-160 1395.0755,-160 1395.0755,-160"/>
<polygon fill="#000000" stroke="#000000" points="1395.0756,-156.5001 1385.0755,-160 1395.0755,-163.5001 1395.0756,-156.5001"/>
</g>
<!-- HistoricalsComponent -->
<g id="node11" class="node">
<title>HistoricalsComponent</title>
<polygon fill="#ffffb3" stroke="#000000" points="1478.9804,-122 1337.0196,-122 1337.0196,-86 1478.9804,-86 1478.9804,-122"/>
<text text-anchor="middle" x="1408" y="-99.8" font-family="Times,serif" font-size="14.00" fill="#000000">HistoricalsComponent</text>
</g>
<!-- HistoricalsComponent&#45;&gt;ModulesModule -->
<g id="edge10" class="edge">
<title>HistoricalsComponent&#45;&gt;ModulesModule</title>
<path fill="none" stroke="#000000" d="M1361.141,-122.1061C1361.141,-122.1061 1361.141,-140.991 1361.141,-140.991"/>
<polygon fill="#000000" stroke="#000000" points="1357.641,-140.9909 1361.141,-150.991 1364.641,-140.991 1357.641,-140.9909"/>
</g>
<!-- ModulesComponent -->
<g id="node12" class="node">
<title>ModulesComponent</title>
<polygon fill="#ffffb3" stroke="#000000" points="1319.3272,-122 1188.6728,-122 1188.6728,-86 1319.3272,-86 1319.3272,-122"/>
<text text-anchor="middle" x="1254" y="-99.8" font-family="Times,serif" font-size="14.00" fill="#000000">ModulesComponent</text>
</g>
<!-- ModulesComponent&#45;&gt;ModulesModule -->
<g id="edge11" class="edge">
<title>ModulesComponent&#45;&gt;ModulesModule</title>
<path fill="none" stroke="#000000" d="M1297.9457,-122.1061C1297.9457,-122.1061 1297.9457,-140.991 1297.9457,-140.991"/>
<polygon fill="#000000" stroke="#000000" points="1294.4457,-140.9909 1297.9457,-150.991 1301.4457,-140.991 1294.4457,-140.9909"/>
</g>
<!-- TasksComponent -->
<g id="node13" class="node">
<title>TasksComponent</title>
<polygon fill="#ffffb3" stroke="#000000" points="1170.9888,-122 1057.0112,-122 1057.0112,-86 1170.9888,-86 1170.9888,-122"/>
<text text-anchor="middle" x="1114" y="-99.8" font-family="Times,serif" font-size="14.00" fill="#000000">TasksComponent</text>
</g>
<!-- TasksComponent&#45;&gt;ModulesModule -->
<g id="edge12" class="edge">
<title>TasksComponent&#45;&gt;ModulesModule</title>
<path fill="none" stroke="#000000" d="M1114,-122.2396C1114,-137.5706 1114,-157 1114,-157 1114,-157 1266.8015,-157 1266.8015,-157"/>
<polygon fill="#000000" stroke="#000000" points="1266.8015,-160.5001 1276.8015,-157 1266.8015,-153.5001 1266.8015,-160.5001"/>
</g>
<!-- MaterialModule -->
<g id="node15" class="node">
<title>MaterialModule</title>
<polygon fill="#8dd3c7" stroke="#000000" points="1033.4706,-122 1030.4706,-126 1009.4706,-126 1006.4706,-122 926.5294,-122 926.5294,-86 1033.4706,-86 1033.4706,-122"/>
<text text-anchor="middle" x="980" y="-99.8" font-family="Times,serif" font-size="14.00" fill="#000000">MaterialModule</text>
</g>
<!-- MaterialModule&#45;&gt;ModulesModule -->
<g id="edge13" class="edge">
<title>MaterialModule&#45;&gt;ModulesModule</title>
<path fill="none" stroke="#000000" d="M980,-122.0225C980,-139.3734 980,-163 980,-163 980,-163 1266.9255,-163 1266.9255,-163"/>
<polygon fill="#000000" stroke="#000000" points="1266.9255,-166.5001 1276.9255,-163 1266.9254,-159.5001 1266.9255,-166.5001"/>
</g>
<!-- ModulesRoutingModule -->
<g id="node16" class="node">
<title>ModulesRoutingModule</title>
<polygon fill="#8dd3c7" stroke="#000000" points="908.6624,-122 905.6624,-126 884.6624,-126 881.6624,-122 755.3376,-122 755.3376,-86 908.6624,-86 908.6624,-122"/>
<text text-anchor="middle" x="832" y="-99.8" font-family="Times,serif" font-size="14.00" fill="#000000">ModulesRoutingModule</text>
</g>
<!-- ModulesRoutingModule&#45;&gt;ModulesModule -->
<g id="edge14" class="edge">
<title>ModulesRoutingModule&#45;&gt;ModulesModule</title>
<path fill="none" stroke="#000000" d="M832,-122.1061C832,-141.3391 832,-169 832,-169 832,-169 1266.6483,-169 1266.6483,-169"/>
<polygon fill="#000000" stroke="#000000" points="1266.6484,-172.5001 1276.6483,-169 1266.6483,-165.5001 1266.6484,-172.5001"/>
</g>
</g>
</svg>
